<svg xmlns="http://www.w3.org/2000/svg" width="64" height="64" viewBox="0 0 64 64">
  <!-- Cooling tower body -->
  <path d="M16 58 Q14 34 22 20 Q26 14 32 12 Q38 14 42 20 Q50 34 48 58 Z" fill="#e0e0e0" stroke="#333" stroke-width="1.5"/>
  <!-- Steam cloud -->
  <circle cx="32" cy="8" r="5" fill="#ccc" opacity="0.7"/>
  <circle cx="27" cy="5" r="4" fill="#ccc" opacity="0.5"/>
  <circle cx="37" cy="6" r="3.5" fill="#ccc" opacity="0.6"/>
  <!-- Radiation symbol -->
  <circle cx="32" cy="36" r="3" fill="#f5c518"/>
  <path d="M32 36 L28 28 A8 8 0 0 1 36 28 Z" fill="#f5c518"/>
  <path d="M32 36 L38 42 A8 8 0 0 1 26 42 Z" fill="#f5c518"/>
  <path d="M32 36 L24 40 A8 8 0 0 1 28 28 Z" fill="#f5c518" transform="rotate(120 32 36)"/>
  <circle cx="32" cy="36" r="2" fill="#333"/>
</svg>
